<svg xmlns="http://www.w3.org/2000/svg" xmlns:xlink="http://www.w3.org/1999/xlink" width="500" zoomAndPan="magnify" viewBox="0 0 375 374.999991" height="500" preserveAspectRatio="xMidYMid meet" version="1.0"><defs><clipPath id="d8b363ecd0"><path d="M 23 58 L 362.816406 58 L 362.816406 326 L 23 326 Z M 23 58 " clip-rule="nonzero"/></clipPath><clipPath id="38418103c5"><path d="M 284 248 L 362.816406 248 L 362.816406 327.355469 L 284 327.355469 Z M 284 248 " clip-rule="nonzero"/></clipPath><clipPath id="68c8d09898"><path d="M 62 47.605469 L 96 47.605469 L 96 81 L 62 81 Z M 62 47.605469 " clip-rule="nonzero"/></clipPath><clipPath id="4a9ca775b1"><path d="M 11.816406 69 L 38 69 L 38 96 L 11.816406 96 Z M 11.816406 69 " clip-rule="nonzero"/></clipPath></defs><g clip-path="url(#d8b363ecd0)"><path fill="#ffefd6" d="M 234.113281 255.671875 L 211.394531 255.671875 C 210.21875 255.671875 209.042969 255.78125 207.882812 255.984375 L 204.574219 256.582031 L 165.25 217.21875 L 165.847656 213.910156 C 166.054688 212.75 166.160156 211.570312 166.160156 210.394531 L 166.160156 180.496094 C 166.160156 169.496094 157.171875 160.5 146.179688 160.5 L 116.308594 160.5 C 105.320312 160.5 96.324219 169.496094 96.324219 180.496094 L 96.324219 210.394531 C 96.324219 211.460938 96.414062 212.511719 96.574219 213.554688 L 97.171875 217.390625 L 65.769531 240.773438 L 63.15625 240.40625 C 62.707031 240.347656 62.253906 240.316406 61.792969 240.316406 L 33.695312 240.316406 C 28.003906 240.316406 23.324219 245 23.324219 250.695312 L 23.324219 278.820312 C 23.324219 284.515625 28.003906 289.195312 33.695312 289.195312 L 61.792969 289.195312 C 67.484375 289.195312 72.164062 284.515625 72.164062 278.820312 L 72.164062 249.371094 L 103.382812 226.144531 L 106.96875 228.0625 C 109.851562 229.597656 113.042969 230.390625 116.308594 230.390625 L 146.179688 230.390625 C 147.355469 230.390625 148.53125 230.285156 149.691406 230.078125 L 153 229.480469 L 192.324219 268.84375 L 191.726562 272.15625 C 191.519531 273.3125 191.414062 274.492188 191.414062 275.667969 L 191.414062 305.578125 C 191.414062 316.578125 200.402344 325.574219 211.394531 325.574219 L 241.269531 325.574219 C 252.261719 325.574219 261.25 316.578125 261.25 305.578125 L 261.25 275.667969 C 261.25 270.378906 259.132812 265.324219 255.417969 261.578125 L 252.15625 258.300781 L 310.230469 142.042969 L 343.054688 142.042969 C 353.890625 142.042969 362.804688 133.132812 362.804688 122.28125 L 362.804688 78.441406 C 362.804688 67.582031 353.902344 58.675781 343.054688 58.675781 L 299.257812 58.675781 C 288.414062 58.675781 279.515625 67.582031 279.515625 78.441406 L 279.515625 122.28125 C 279.515625 128.410156 282.367188 134.121094 287.183594 137.871094 L 291.332031 141.113281 L 234.101562 255.671875 Z M 234.113281 255.671875 " fill-opacity="1" fill-rule="evenodd"/></g><path fill="#f2deba" d="M 230.8125 76.382812 C 224.871094 76.382812 220.015625 81.25 220.015625 87.191406 L 220.015625 105.277344 C 220.015625 111.222656 224.871094 116.082031 230.8125 116.082031 L 248.882812 116.082031 C 254.820312 116.082031 259.675781 111.214844 259.675781 105.277344 L 259.675781 87.191406 C 259.675781 81.246094 254.8125 76.382812 248.882812 76.382812 Z M 230.8125 76.382812 " fill-opacity="1" fill-rule="evenodd"/><path fill="#0e5e6f" d="M 147.804688 58.675781 C 136.925781 58.675781 128.027344 67.589844 128.027344 78.476562 L 128.027344 111.597656 C 128.027344 122.488281 136.925781 131.394531 147.804688 131.394531 L 180.898438 131.394531 C 191.777344 131.394531 200.675781 122.480469 200.675781 111.597656 L 200.675781 78.476562 C 200.675781 67.589844 191.777344 58.675781 180.898438 58.675781 Z M 147.804688 58.675781 " fill-opacity="1" fill-rule="evenodd"/><path fill="#0e5e6f" d="M 113.265625 272.042969 C 105.261719 272.042969 98.707031 278.601562 98.707031 286.617188 L 98.707031 311 C 98.707031 319.015625 105.261719 325.574219 113.265625 325.574219 L 137.628906 325.574219 C 145.636719 325.574219 152.191406 319.015625 152.191406 311 L 152.191406 286.613281 C 152.191406 278.601562 145.636719 272.042969 137.628906 272.042969 Z M 113.265625 272.042969 " fill-opacity="1" fill-rule="evenodd"/><g clip-path="url(#38418103c5)"><path fill="#f2deba" d="M 305.589844 248.65625 C 293.820312 248.65625 284.183594 258.296875 284.183594 270.085938 L 284.183594 305.933594 C 284.183594 317.714844 293.8125 327.359375 305.589844 327.359375 L 341.40625 327.359375 C 353.175781 327.359375 362.816406 317.71875 362.816406 305.933594 L 362.816406 270.085938 C 362.816406 258.300781 353.183594 248.65625 341.40625 248.65625 Z M 305.589844 248.65625 " fill-opacity="1" fill-rule="evenodd"/></g><path fill="#0e5e6f" d="M 321.949219 173.476562 C 315.472656 173.476562 310.164062 178.78125 310.164062 185.265625 L 310.164062 204.988281 C 310.164062 211.472656 315.464844 216.777344 321.949219 216.777344 L 341.65625 216.777344 C 348.132812 216.777344 353.429688 211.472656 353.429688 204.988281 L 353.429688 185.265625 C 353.429688 178.78125 348.132812 173.476562 341.65625 173.476562 Z M 321.949219 173.476562 " fill-opacity="1" fill-rule="evenodd"/><path fill="#ffefd6" d="M 206.230469 140.917969 C 197.761719 140.917969 190.828125 147.855469 190.828125 156.332031 L 190.828125 182.117188 C 190.828125 190.59375 197.761719 197.53125 206.230469 197.53125 L 231.992188 197.53125 C 240.460938 197.53125 247.390625 190.59375 247.390625 182.117188 L 247.390625 156.332031 C 247.390625 147.855469 240.460938 140.917969 231.992188 140.917969 Z M 206.230469 140.917969 " fill-opacity="1" fill-rule="evenodd"/><path fill="#0e5e6f" d="M 36.246094 140.226562 C 29.144531 140.226562 23.328125 146.046875 23.328125 153.15625 L 23.328125 174.789062 C 23.328125 181.898438 29.144531 187.71875 36.246094 187.71875 L 57.863281 187.71875 C 64.964844 187.71875 70.78125 181.898438 70.78125 174.789062 L 70.78125 153.15625 C 70.78125 146.046875 64.964844 140.226562 57.863281 140.226562 Z M 36.246094 140.226562 " fill-opacity="1" fill-rule="evenodd"/><path fill="#ffefd6" d="M 85.6875 102.832031 C 79.902344 102.832031 75.164062 107.578125 75.164062 113.367188 L 75.164062 130.992188 C 75.164062 136.78125 79.898438 141.527344 85.6875 141.527344 L 103.296875 141.527344 C 109.082031 141.527344 113.824219 136.78125 113.824219 130.992188 L 113.824219 113.367188 C 113.824219 107.578125 109.089844 102.832031 103.296875 102.832031 Z M 85.6875 102.832031 " fill-opacity="1" fill-rule="evenodd"/><g clip-path="url(#68c8d09898)"><path fill="#3a8891" d="M 71.851562 47.605469 C 66.980469 47.605469 62.996094 51.589844 62.996094 56.464844 L 62.996094 71.296875 C 62.996094 76.171875 66.980469 80.15625 71.851562 80.15625 L 86.664062 80.15625 C 91.53125 80.15625 95.515625 76.171875 95.515625 71.296875 L 95.515625 56.464844 C 95.515625 51.589844 91.53125 47.605469 86.664062 47.605469 Z M 71.851562 47.605469 " fill-opacity="1" fill-rule="evenodd"/></g><g clip-path="url(#4a9ca775b1)"><path fill="#f2deba" d="M 18.851562 69.503906 C 14.984375 69.503906 11.820312 72.671875 11.820312 76.542969 L 11.820312 88.320312 C 11.820312 92.1875 14.980469 95.359375 18.851562 95.359375 L 30.617188 95.359375 C 34.480469 95.359375 37.648438 92.1875 37.648438 88.320312 L 37.648438 76.542969 C 37.648438 72.671875 34.488281 69.503906 30.617188 69.503906 Z M 18.851562 69.503906 " fill-opacity="1" fill-rule="evenodd"/></g></svg>