<svg xmlns="http://www.w3.org/2000/svg" xmlns:xlink="http://www.w3.org/1999/xlink" width="500" zoomAndPan="magnify" viewBox="0 0 375 374.999991" height="500" preserveAspectRatio="xMidYMid meet" version="1.0"><defs><clipPath id="c353929100"><path d="M 55 83 L 329.335938 83 L 329.335938 300 L 55 300 Z M 55 83 " clip-rule="nonzero"/></clipPath><clipPath id="6443923b8c"><path d="M 265 236 L 329.335938 236 L 329.335938 300.441406 L 265 300.441406 Z M 265 236 " clip-rule="nonzero"/></clipPath><clipPath id="e6e01019cf"><path d="M 87 74.691406 L 114 74.691406 L 114 101 L 87 101 Z M 87 74.691406 " clip-rule="nonzero"/></clipPath><clipPath id="ae4d64f020"><path d="M 45.835938 92 L 67 92 L 67 114 L 45.835938 114 Z M 45.835938 92 " clip-rule="nonzero"/></clipPath></defs><rect x="-37.5" width="450" fill="#ffffff" y="-37.499999" height="449.999989" fill-opacity="1"/><rect x="-37.5" width="450" fill="#ffffff" y="-37.499999" height="449.999989" fill-opacity="1"/><rect x="-37.5" width="450" fill="#000b14" y="-37.499999" height="449.999989" fill-opacity="1"/><g clip-path="url(#c353929100)"><path fill="#ffefd6" d="M 225.382812 242.59375 L 207.03125 242.59375 C 206.082031 242.59375 205.132812 242.6875 204.195312 242.847656 L 201.523438 243.332031 L 169.761719 211.566406 L 170.242188 208.894531 C 170.410156 207.957031 170.496094 207.007812 170.496094 206.058594 L 170.496094 181.933594 C 170.496094 173.054688 163.234375 165.796875 154.359375 165.796875 L 130.230469 165.796875 C 121.355469 165.796875 114.089844 173.054688 114.089844 181.933594 L 114.089844 206.058594 C 114.089844 206.917969 114.160156 207.769531 114.289062 208.609375 L 114.773438 211.707031 L 89.410156 230.574219 L 87.300781 230.277344 C 86.9375 230.230469 86.570312 230.203125 86.199219 230.203125 L 63.503906 230.203125 C 58.90625 230.203125 55.125 233.984375 55.125 238.582031 L 55.125 261.277344 C 55.125 265.871094 58.90625 269.648438 63.503906 269.648438 L 86.199219 269.648438 C 90.792969 269.648438 94.574219 265.871094 94.574219 261.277344 L 94.574219 237.511719 L 119.789062 218.769531 L 122.6875 220.316406 C 125.015625 221.554688 127.59375 222.195312 130.230469 222.195312 L 154.359375 222.195312 C 155.308594 222.195312 156.257812 222.109375 157.191406 221.941406 L 159.867188 221.460938 L 191.628906 253.222656 L 191.148438 255.898438 C 190.980469 256.832031 190.894531 257.78125 190.894531 258.730469 L 190.894531 282.867188 C 190.894531 291.746094 198.152344 299.003906 207.03125 299.003906 L 231.164062 299.003906 C 240.039062 299.003906 247.300781 291.746094 247.300781 282.867188 L 247.300781 258.730469 C 247.300781 254.464844 245.589844 250.382812 242.589844 247.363281 L 239.953125 244.71875 L 286.859375 150.898438 L 313.375 150.898438 C 322.128906 150.898438 329.324219 143.710938 329.324219 134.953125 L 329.324219 99.578125 C 329.324219 90.816406 322.136719 83.625 313.375 83.625 L 277.996094 83.625 C 269.238281 83.625 262.050781 90.816406 262.050781 99.578125 L 262.050781 134.953125 C 262.050781 139.898438 264.355469 144.507812 268.246094 147.535156 L 271.597656 150.152344 L 225.371094 242.59375 Z M 225.382812 242.59375 " fill-opacity="1" fill-rule="evenodd"/></g><path fill="#f2deba" d="M 222.714844 97.917969 C 217.917969 97.917969 213.996094 101.84375 213.996094 106.636719 L 213.996094 121.230469 C 213.996094 126.027344 217.917969 129.953125 222.714844 129.953125 L 237.308594 129.953125 C 242.105469 129.953125 246.03125 126.023438 246.03125 121.230469 L 246.03125 106.636719 C 246.03125 101.839844 242.101562 97.917969 237.308594 97.917969 Z M 222.714844 97.917969 " fill-opacity="1" fill-rule="evenodd"/><path fill="#0e5e6f" d="M 155.671875 83.625 C 146.882812 83.625 139.695312 90.820312 139.695312 99.605469 L 139.695312 126.335938 C 139.695312 135.121094 146.882812 142.308594 155.671875 142.308594 L 182.398438 142.308594 C 191.183594 142.308594 198.371094 135.117188 198.371094 126.335938 L 198.371094 99.605469 C 198.371094 90.820312 191.183594 83.625 182.398438 83.625 Z M 155.671875 83.625 " fill-opacity="1" fill-rule="evenodd"/><path fill="#0e5e6f" d="M 127.773438 255.804688 C 121.304688 255.804688 116.011719 261.097656 116.011719 267.566406 L 116.011719 287.246094 C 116.011719 293.710938 121.304688 299.003906 127.773438 299.003906 L 147.453125 299.003906 C 153.917969 299.003906 159.210938 293.710938 159.210938 287.246094 L 159.210938 267.566406 C 159.210938 261.097656 153.917969 255.804688 147.453125 255.804688 Z M 127.773438 255.804688 " fill-opacity="1" fill-rule="evenodd"/><g clip-path="url(#6443923b8c)"><path fill="#f2deba" d="M 283.113281 236.933594 C 273.605469 236.933594 265.824219 244.714844 265.824219 254.226562 L 265.824219 283.15625 C 265.824219 292.664062 273.601562 300.445312 283.113281 300.445312 L 312.042969 300.445312 C 321.550781 300.445312 329.335938 292.667969 329.335938 283.15625 L 329.335938 254.226562 C 329.335938 244.71875 321.554688 236.933594 312.042969 236.933594 Z M 283.113281 236.933594 " fill-opacity="1" fill-rule="evenodd"/></g><path fill="#0e5e6f" d="M 296.324219 176.265625 C 291.09375 176.265625 286.808594 180.546875 286.808594 185.78125 L 286.808594 201.695312 C 286.808594 206.929688 291.089844 211.210938 296.324219 211.210938 L 312.242188 211.210938 C 317.472656 211.210938 321.753906 206.929688 321.753906 201.695312 L 321.753906 185.78125 C 321.753906 180.546875 317.472656 176.265625 312.242188 176.265625 Z M 296.324219 176.265625 " fill-opacity="1" fill-rule="evenodd"/><path fill="#ffefd6" d="M 202.859375 149.992188 C 196.019531 149.992188 190.421875 155.589844 190.421875 162.429688 L 190.421875 183.242188 C 190.421875 190.078125 196.019531 195.679688 202.859375 195.679688 L 223.667969 195.679688 C 230.507812 195.679688 236.105469 190.078125 236.105469 183.242188 L 236.105469 162.429688 C 236.105469 155.589844 230.507812 149.992188 223.667969 149.992188 Z M 202.859375 149.992188 " fill-opacity="1" fill-rule="evenodd"/><path fill="#0e5e6f" d="M 65.566406 149.433594 C 59.828125 149.433594 55.132812 154.132812 55.132812 159.867188 L 55.132812 177.328125 C 55.132812 183.0625 59.828125 187.761719 65.566406 187.761719 L 83.023438 187.761719 C 88.761719 187.761719 93.457031 183.0625 93.457031 177.328125 L 93.457031 159.867188 C 93.457031 154.132812 88.761719 149.433594 83.023438 149.433594 Z M 65.566406 149.433594 " fill-opacity="1" fill-rule="evenodd"/><path fill="#ffefd6" d="M 105.5 119.261719 C 100.828125 119.261719 97 123.089844 97 127.761719 L 97 141.984375 C 97 146.65625 100.820312 150.484375 105.5 150.484375 L 119.722656 150.484375 C 124.394531 150.484375 128.222656 146.65625 128.222656 141.984375 L 128.222656 127.761719 C 128.222656 123.089844 124.398438 119.261719 119.722656 119.261719 Z M 105.5 119.261719 " fill-opacity="1" fill-rule="evenodd"/><g clip-path="url(#e6e01019cf)"><path fill="#3a8891" d="M 94.320312 74.691406 C 90.386719 74.691406 87.171875 77.910156 87.171875 81.84375 L 87.171875 93.8125 C 87.171875 97.746094 90.386719 100.960938 94.320312 100.960938 L 106.285156 100.960938 C 110.21875 100.960938 113.4375 97.746094 113.4375 93.8125 L 113.4375 81.84375 C 113.4375 77.910156 110.21875 74.691406 106.285156 74.691406 Z M 94.320312 74.691406 " fill-opacity="1" fill-rule="evenodd"/></g><g clip-path="url(#ae4d64f020)"><path fill="#f2deba" d="M 51.515625 92.367188 C 48.390625 92.367188 45.835938 94.917969 45.835938 98.046875 L 45.835938 107.546875 C 45.835938 110.667969 48.386719 113.226562 51.515625 113.226562 L 61.015625 113.226562 C 64.136719 113.226562 66.695312 110.667969 66.695312 107.546875 L 66.695312 98.046875 C 66.695312 94.917969 64.144531 92.367188 61.015625 92.367188 Z M 51.515625 92.367188 " fill-opacity="1" fill-rule="evenodd"/></g></svg>