<?xml version="1.0" encoding="UTF-8"?>
<svg xmlns="http://www.w3.org/2000/svg" xmlns:xlink="http://www.w3.org/1999/xlink" width="32px" height="32px" viewBox="0 0 32 32" version="1.1">
<defs>
<clipPath id="clip1">
  <path d="M 1.960938 5 L 30.960938 5 L 30.960938 27.820312 L 1.960938 27.820312 Z M 1.960938 5 "/>
</clipPath>
<clipPath id="clip2">
  <path d="M 24.234375 21.164062 L 30.960938 21.164062 L 30.960938 27.933594 L 24.234375 27.933594 Z M 24.234375 21.164062 "/>
</clipPath>
<clipPath id="clip3">
  <path d="M 5.289062 4.0625 L 8.191406 4.0625 L 8.191406 6.910156 L 5.289062 6.910156 Z M 5.289062 4.0625 "/>
</clipPath>
<clipPath id="clip4">
  <path d="M 1.007812 5.886719 L 3.242188 5.886719 L 3.242188 8.191406 L 1.007812 8.191406 Z M 1.007812 5.886719 "/>
</clipPath>
</defs>
<g id="surface1">
<g clip-path="url(#clip1)" clip-rule="nonzero">
<path style=" stroke:none;fill-rule:evenodd;fill:rgb(100%,93.72549%,83.921569%);fill-opacity:1;" d="M 19.976562 21.816406 L 18.039062 21.816406 C 17.9375 21.816406 17.839844 21.828125 17.738281 21.84375 L 17.457031 21.894531 L 14.101562 18.535156 L 14.152344 18.253906 C 14.171875 18.15625 14.179688 18.054688 14.179688 17.953125 L 14.179688 15.402344 C 14.179688 14.464844 13.410156 13.695312 12.472656 13.695312 L 9.925781 13.695312 C 8.988281 13.695312 8.21875 14.464844 8.21875 15.402344 L 8.21875 17.953125 C 8.21875 18.042969 8.226562 18.132812 8.242188 18.222656 L 8.292969 18.550781 L 5.613281 20.546875 L 5.390625 20.515625 C 5.351562 20.507812 5.3125 20.507812 5.273438 20.507812 L 2.875 20.507812 C 2.390625 20.507812 1.992188 20.90625 1.992188 21.394531 L 1.992188 23.792969 C 1.992188 24.277344 2.390625 24.679688 2.875 24.679688 L 5.273438 24.679688 C 5.757812 24.679688 6.15625 24.277344 6.15625 23.792969 L 6.15625 21.28125 L 8.820312 19.296875 L 9.128906 19.460938 C 9.375 19.59375 9.644531 19.660156 9.925781 19.660156 L 12.472656 19.660156 C 12.574219 19.660156 12.675781 19.652344 12.773438 19.632812 L 13.054688 19.582031 L 16.410156 22.941406 L 16.359375 23.222656 C 16.34375 23.324219 16.335938 23.421875 16.335938 23.523438 L 16.335938 26.074219 C 16.335938 27.015625 17.101562 27.78125 18.039062 27.78125 L 20.589844 27.78125 C 21.527344 27.78125 22.292969 27.015625 22.292969 26.074219 L 22.292969 23.523438 C 22.292969 23.074219 22.113281 22.640625 21.796875 22.320312 L 21.515625 22.042969 L 26.472656 12.121094 L 29.273438 12.121094 C 30.199219 12.121094 30.960938 11.359375 30.960938 10.433594 L 30.960938 6.695312 C 30.960938 5.765625 30.199219 5.007812 29.273438 5.007812 L 25.535156 5.007812 C 24.613281 5.007812 23.851562 5.765625 23.851562 6.695312 L 23.851562 10.433594 C 23.851562 10.957031 24.09375 11.445312 24.507812 11.765625 L 24.859375 12.042969 Z M 19.976562 21.816406 "/>
</g>
<path style=" stroke:none;fill-rule:evenodd;fill:rgb(94.901961%,87.058824%,72.941176%);fill-opacity:1;" d="M 19.695312 6.519531 C 19.1875 6.519531 18.773438 6.933594 18.773438 7.441406 L 18.773438 8.984375 C 18.773438 9.492188 19.1875 9.90625 19.695312 9.90625 L 21.238281 9.90625 C 21.746094 9.90625 22.160156 9.492188 22.160156 8.984375 L 22.160156 7.441406 C 22.160156 6.933594 21.742188 6.519531 21.238281 6.519531 Z M 19.695312 6.519531 "/>
<path style=" stroke:none;fill-rule:evenodd;fill:rgb(5.490196%,36.862745%,43.529412%);fill-opacity:1;" d="M 12.613281 5.007812 C 11.683594 5.007812 10.925781 5.769531 10.925781 6.695312 L 10.925781 9.523438 C 10.925781 10.453125 11.683594 11.210938 12.613281 11.210938 L 15.4375 11.210938 C 16.363281 11.210938 17.125 10.453125 17.125 9.523438 L 17.125 6.695312 C 17.125 5.769531 16.363281 5.007812 15.4375 5.007812 Z M 12.613281 5.007812 "/>
<path style=" stroke:none;fill-rule:evenodd;fill:rgb(5.490196%,36.862745%,43.529412%);fill-opacity:1;" d="M 9.664062 23.214844 C 8.980469 23.214844 8.421875 23.773438 8.421875 24.457031 L 8.421875 26.539062 C 8.421875 27.222656 8.980469 27.78125 9.664062 27.78125 L 11.746094 27.78125 C 12.425781 27.78125 12.988281 27.222656 12.988281 26.539062 L 12.988281 24.457031 C 12.988281 23.773438 12.425781 23.214844 11.746094 23.214844 Z M 9.664062 23.214844 "/>
<g clip-path="url(#clip2)" clip-rule="nonzero">
<path style=" stroke:none;fill-rule:evenodd;fill:rgb(94.901961%,87.058824%,72.941176%);fill-opacity:1;" d="M 26.078125 21.21875 C 25.074219 21.21875 24.25 22.042969 24.25 23.046875 L 24.25 26.105469 C 24.25 27.113281 25.070312 27.933594 26.078125 27.933594 L 29.132812 27.933594 C 30.136719 27.933594 30.960938 27.113281 30.960938 26.105469 L 30.960938 23.046875 C 30.960938 22.042969 30.136719 21.21875 29.132812 21.21875 Z M 26.078125 21.21875 "/>
</g>
<path style=" stroke:none;fill-rule:evenodd;fill:rgb(5.490196%,36.862745%,43.529412%);fill-opacity:1;" d="M 27.472656 14.804688 C 26.921875 14.804688 26.46875 15.257812 26.46875 15.808594 L 26.46875 17.492188 C 26.46875 18.046875 26.917969 18.5 27.472656 18.5 L 29.15625 18.5 C 29.707031 18.5 30.160156 18.046875 30.160156 17.492188 L 30.160156 15.808594 C 30.160156 15.257812 29.707031 14.804688 29.15625 14.804688 Z M 27.472656 14.804688 "/>
<path style=" stroke:none;fill-rule:evenodd;fill:rgb(100%,93.72549%,83.921569%);fill-opacity:1;" d="M 17.597656 12.023438 C 16.875 12.023438 16.285156 12.617188 16.285156 13.339844 L 16.285156 15.539062 C 16.285156 16.265625 16.875 16.855469 17.597656 16.855469 L 19.796875 16.855469 C 20.519531 16.855469 21.109375 16.265625 21.109375 15.539062 L 21.109375 13.339844 C 21.109375 12.617188 20.519531 12.023438 19.796875 12.023438 Z M 17.597656 12.023438 "/>
<path style=" stroke:none;fill-rule:evenodd;fill:rgb(5.490196%,36.862745%,43.529412%);fill-opacity:1;" d="M 3.09375 11.964844 C 2.488281 11.964844 1.992188 12.460938 1.992188 13.070312 L 1.992188 14.914062 C 1.992188 15.523438 2.488281 16.019531 3.09375 16.019531 L 4.9375 16.019531 C 5.542969 16.019531 6.039062 15.523438 6.039062 14.914062 L 6.039062 13.070312 C 6.039062 12.460938 5.542969 11.964844 4.9375 11.964844 Z M 3.09375 11.964844 "/>
<path style=" stroke:none;fill-rule:evenodd;fill:rgb(100%,93.72549%,83.921569%);fill-opacity:1;" d="M 7.3125 8.773438 C 6.816406 8.773438 6.414062 9.179688 6.414062 9.675781 L 6.414062 11.179688 C 6.414062 11.671875 6.816406 12.078125 7.3125 12.078125 L 8.816406 12.078125 C 9.308594 12.078125 9.714844 11.671875 9.714844 11.179688 L 9.714844 9.675781 C 9.714844 9.179688 9.308594 8.773438 8.816406 8.773438 Z M 7.3125 8.773438 "/>
<g clip-path="url(#clip3)" clip-rule="nonzero">
<path style=" stroke:none;fill-rule:evenodd;fill:rgb(22.745098%,53.333333%,56.862745%);fill-opacity:1;" d="M 6.132812 4.0625 C 5.714844 4.0625 5.375 4.402344 5.375 4.816406 L 5.375 6.085938 C 5.375 6.5 5.714844 6.839844 6.132812 6.839844 L 7.394531 6.839844 C 7.8125 6.839844 8.152344 6.5 8.152344 6.085938 L 8.152344 4.816406 C 8.152344 4.402344 7.8125 4.0625 7.394531 4.0625 Z M 6.132812 4.0625 "/>
</g>
<g clip-path="url(#clip4)" clip-rule="nonzero">
<path style=" stroke:none;fill-rule:evenodd;fill:rgb(94.901961%,87.058824%,72.941176%);fill-opacity:1;" d="M 1.609375 5.929688 C 1.277344 5.929688 1.007812 6.203125 1.007812 6.53125 L 1.007812 7.535156 C 1.007812 7.867188 1.277344 8.136719 1.609375 8.136719 L 2.613281 8.136719 C 2.941406 8.136719 3.210938 7.867188 3.210938 7.535156 L 3.210938 6.53125 C 3.210938 6.203125 2.941406 5.929688 2.613281 5.929688 Z M 1.609375 5.929688 "/>
</g>
</g>
</svg>
